<svg width="36" height="36" viewBox="0 0 36 36" fill="none" xmlns="http://www.w3.org/2000/svg">
<circle cx="18" cy="18" r="18" fill="#3A846F"/>
<path d="M21.1793 11.837H23.3804C23.6234 11.837 23.8207 11.6397 23.8207 11.3967V8.43099C23.8207 8.20032 23.6432 8.00839 23.4135 7.9921C22.7131 7.94235 21.3449 7.875 20.361 7.875C17.6576 7.875 15.8967 9.495 15.8967 12.4392V15.3587H12.8152C12.5722 15.3587 12.375 15.5559 12.375 15.7989V18.8804C12.375 19.1234 12.5722 19.3207 12.8152 19.3207H15.8967V27.6848C15.8967 27.9278 16.094 28.125 16.337 28.125H19.4185C19.6615 28.125 19.8587 27.9278 19.8587 27.6848V19.3207H23.0379C23.2625 19.3207 23.4509 19.1521 23.4755 18.9289L23.818 15.8473C23.8471 15.5867 23.6428 15.3587 23.3804 15.3587H19.8587V13.1576C19.8587 12.4282 20.4499 11.837 21.1793 11.837Z" fill="#F2F2F2"/>
</svg>
