<svg width="1651" height="3615" viewBox="0 0 1651 3615" fill="none" xmlns="http://www.w3.org/2000/svg">
<path fill-rule="evenodd" clip-rule="evenodd" d="M-57.0529 337.188L-57.4022 350.818L-47.4317 320.956L-57.0529 337.188ZM-58.0984 338.951L-58.4857 354.063L-79.4682 416.905L-69.4989 358.185L-58.0984 338.951ZM-58.0459 336.902L-69.0323 355.436L-56.6524 282.516L-58.0459 336.902ZM-57.0004 335.138L-45.9322 316.465L-37.4085 290.937L-20.4245 69.1282L-55.4742 275.577L-57.0004 335.138ZM-45.0176 316.883L-57.4898 354.238L-65.1517 653.258L-38.5613 305.991L-45.0176 316.883ZM-38.3888 303.739L-43.5181 312.393L-37.7223 295.034L-38.3888 303.739ZM-37.4096 304.048L-65.6561 672.943L-65.71 675.044C-50.5052 679.103 -34.7949 682.885 -18.8077 686.207C27.1894 695.765 71.0062 685.095 107.111 667.849C143.192 650.614 171.535 626.829 186.598 610.178C191.896 601.219 197.197 585.602 195.869 567.868C194.54 550.125 186.573 530.241 165.271 512.758C111.632 468.736 86.7962 417.317 82.1919 350.065C80.3653 323.385 65.568 300.772 47.7535 283.325C30.115 266.051 9.56322 253.886 -4.129 247.902L-37.4096 304.048ZM-65.7363 676.072C-50.586 680.112 -34.936 683.877 -19.0112 687.186C27.2628 696.802 71.3066 686.06 107.542 668.751C143.775 651.444 172.237 627.554 187.374 610.811L187.407 610.774L187.433 610.731C192.831 601.624 198.214 585.783 196.866 567.793C195.517 549.784 187.424 529.645 165.905 511.985C112.489 468.147 87.776 416.987 83.1896 349.997C81.3399 322.98 66.3631 300.151 48.4532 282.611C30.5417 265.069 9.65114 252.77 -4.13575 246.809L-4.53984 246.634L-4.76431 247.013L-37.2371 301.796L-36.4209 291.136L-0.386697 183.214C19.5839 186.87 50.4012 197.109 78.4559 216.057C106.707 235.137 132.119 263.021 140.881 301.87C162.903 399.516 208.609 466.144 291.624 510.979C324.63 528.806 340.134 555.239 346.12 581.048C352.105 606.851 348.573 632.032 343.472 647.336C326.953 677.683 294.093 723.607 249.195 762.754C204.277 801.919 147.353 834.265 82.7221 837.498C28.6971 840.201 -23.7783 838.363 -69.7966 834.531L-65.7363 676.072ZM-66.7977 674.753L-66.6552 672.892L-58.5733 357.483L-80.5589 423.329L-120.515 658.678C-103.687 664.225 -85.6355 669.7 -66.7977 674.753ZM-120.684 659.675C-103.826 665.23 -85.7438 670.71 -66.8753 675.767L-78.971 833.734C-104.78 831.397 -128.37 828.464 -148.822 825.411L-120.684 659.675ZM-121.476 658.361L-82.6225 429.51L-155.106 646.599C-144.616 650.471 -133.354 654.433 -121.476 658.361ZM-155.423 647.548C-144.888 651.436 -133.577 655.414 -121.645 659.358L-149.811 825.263C-176.126 821.311 -197.17 817.172 -210.959 813.876L-155.423 647.548ZM-156.362 647.201L-212.08 814.077L-212.252 814.594L-211.723 814.721C-197.924 818.042 -176.655 822.242 -149.979 826.249L-195.653 1095.28L-195.746 1095.82L-195.19 1095.86C-174.418 1097.14 -140.945 1097.35 -98.969 1094.9L-109.495 1232.38L-109.538 1232.93L-108.984 1232.91C-101.092 1232.72 -91.6991 1232.27 -80.9696 1231.54L-85.0361 1390.24L-85.0501 1390.78L-84.5032 1390.75C5.50849 1384.8 246.098 1349.51 488.554 1255.94C609.902 1209.11 699.601 1108.09 762.424 1000.9C825.248 893.713 861.227 780.298 875.111 708.573L875.119 708.533L875.12 708.491C875.999 674.171 868.139 620.762 841.697 572.017C815.247 523.258 770.198 479.158 696.724 463.536C513.632 424.607 388.678 318.706 290.652 135.424C251.342 61.926 186.596 21.1725 121.67 0.08724C56.7516 -20.9958 -8.3812 -22.4278 -48.5474 -17.2595L-48.9725 -17.2048L-48.9834 -16.7763L-56.4721 275.48L-70.4538 357.834L-224.643 617.96L-224.918 618.424L-224.435 618.663C-211.027 625.297 -187.035 635.847 -156.362 647.201ZM-156.045 646.252L-81.5318 423.086L-70.9204 360.583L-223.508 618.005C-210.044 624.636 -186.302 635.051 -156.045 646.252ZM-194.574 1094.89L-148.99 826.397C-128.51 829.454 -104.89 832.391 -79.0473 834.731L-98.8919 1093.9C-140.516 1096.33 -173.776 1096.15 -194.574 1094.89ZM-97.8845 1093.84L-78.0513 834.821C-75.6596 835.036 -73.2491 835.245 -70.8205 835.449L-77.4059 1092.46C-84.4307 1092.99 -91.2623 1093.45 -97.8845 1093.84ZM-76.4036 1092.38L-69.8223 835.533C-23.7763 839.364 28.7225 841.201 82.7721 838.497C147.708 835.248 204.839 802.756 249.853 763.508C294.868 724.258 327.808 678.215 344.372 647.775L344.393 647.736L344.407 647.695C349.564 632.248 353.132 606.855 347.094 580.822C341.052 554.77 325.388 528.078 292.099 510.1C209.375 465.422 163.825 399.057 141.856 301.65C133.021 262.477 107.403 234.401 79.0156 215.228C50.6313 196.058 19.4403 185.761 -0.63529 182.153L-1.06102 182.076L-1.19801 182.486L-36.1072 287.039L-18.5976 58.3676L-18.3371 56.8334C33.9956 56.4615 146.199 84.4326 180.036 199.448C222.588 344.087 290.827 433.871 403.584 479.077C448.43 497.057 472.198 533.481 483.687 571.766C495.173 610.043 494.37 650.136 490.091 675.369C473.441 727.19 438.182 807.903 386.518 881.625C334.836 955.373 266.786 1022.06 184.589 1045.9C89.0983 1073.6 -3.85695 1086.84 -76.4036 1092.38ZM-77.9749 833.824C-75.5999 834.037 -73.2063 834.245 -70.7948 834.448L-67.1596 692.578L-77.9749 833.824ZM-55.2939 268.54L-19.5912 58.2455L-17.3706 29.2451L-17.3384 28.8247L-16.9186 28.7855C14.4393 25.8559 64.8308 29.5113 114.159 49.9886C163.499 70.4704 211.792 107.791 238.883 172.193C306.418 332.737 398.319 428.015 538.257 468.148C594.487 484.274 627.374 523.738 645.633 566.472C663.885 609.194 667.534 655.214 665.287 684.563L665.284 684.601L665.276 684.638C651.252 745.522 618.217 841.275 564.677 930.699C511.142 1020.12 437.065 1103.27 340.93 1138.86C171.239 1201.67 4.75365 1225.56 -79.9675 1231.47L-84.0223 1389.71C6.32893 1383.67 246.335 1348.35 488.194 1255.01C609.248 1208.29 698.798 1107.48 761.561 1000.4C824.31 893.336 860.251 780.053 874.121 708.424C874.989 674.247 867.152 621.04 840.818 572.494C814.483 523.945 769.655 480.065 696.516 464.514C513.08 425.512 387.906 319.382 289.77 135.896C250.615 62.6862 186.116 22.068 121.361 1.03834C56.829 -19.9193 -7.92272 -21.4092 -47.9948 -16.322L-55.2939 268.54ZM-76.4294 1093.39C-3.80327 1087.85 89.2621 1074.59 184.868 1046.86C267.387 1022.92 335.603 956.021 387.337 882.199C439.078 808.367 474.382 727.543 491.054 675.641L491.065 675.607L491.071 675.572C495.375 650.221 496.189 609.949 484.645 571.478C473.097 532.997 449.166 496.275 403.956 478.149C291.572 433.093 223.491 343.616 180.995 199.165C146.961 83.4815 34.1044 55.4394 -18.4036 55.8339L-16.4057 29.7424C14.8388 26.8977 64.835 30.5958 113.776 50.9122C162.925 71.3152 210.993 108.469 237.961 172.58C305.577 333.318 397.673 428.87 537.982 469.109C593.851 485.132 626.54 524.331 644.713 566.865C662.883 609.394 666.524 655.227 664.293 684.45C650.285 745.248 617.287 840.88 563.819 930.185C510.335 1019.52 436.409 1102.45 340.583 1137.92C171.051 1200.67 4.71846 1224.55 -79.9418 1230.46L-76.4294 1093.39ZM-97.9615 1094.85C-91.3232 1094.45 -84.4744 1093.99 -77.4316 1093.46L-80.9439 1230.53C-91.4471 1231.26 -100.669 1231.7 -108.456 1231.9L-97.9615 1094.85Z" fill="#3A846F"/>
<path fill-rule="evenodd" clip-rule="evenodd" d="M461.262 2199.6C573.323 2253.48 675.686 2332.97 735.714 2389.78C886.466 2491.05 990.135 2524.07 1097.87 2492.46C1151.76 2476.65 1206.72 2444.65 1269.12 2396.85C1331.52 2349.05 1401.34 2285.47 1484.98 2206.51C1568.68 2127.5 1646.6 2092.95 1716.78 2090.54C1786.96 2088.14 1849.3 2117.88 1901.83 2167.27C2006.85 2266.03 2072.72 2443.43 2083.73 2600.08C2089.24 2678.45 2071.79 2731.96 2037.14 2766.99C2002.49 2802 1950.75 2818.45 1887.87 2822.88C1772.05 2831.04 1618.13 2798.43 1462.87 2765.55C1449.59 2762.74 1436.29 2759.92 1423.01 2757.13C1380.91 2748.28 1350.51 2748.88 1329.31 2757.02C1308.16 2765.14 1296.11 2780.79 1290.76 2802.22C1285.4 2823.68 1286.75 2850.93 1292.43 2882.18C1298.12 2913.41 1308.12 2948.59 1320.02 2985.89C1327.77 3010.16 1336.31 3035.32 1344.99 3060.87L1344.99 3060.88C1362.98 3113.85 1381.54 3168.48 1394.67 3220.25C1404.41 3258.62 1411.18 3295.44 1412.54 3328.87C1413.9 3362.29 1409.84 3392.35 1397.91 3417.17C1385.96 3442.01 1367.25 3458.6 1343 3468.05C1318.76 3477.5 1289 3479.8 1254.96 3476.13C1186.88 3468.79 1101.5 3437.53 1008.41 3391.4C822.225 3299.13 605.043 3147.28 433.424 3007.85C261.767 2868.38 123.704 2685.85 59.4196 2523.89C27.2784 2442.91 13.563 2367.03 23.3568 2304.23C33.1551 2241.4 66.4851 2191.67 128.363 2163.08C227.316 2117.36 349.206 2145.71 461.262 2199.6ZM128.783 2163.99C227.311 2118.46 348.839 2146.64 460.829 2200.5C572.795 2254.34 675.089 2333.78 735.057 2390.53L735.087 2390.56L735.122 2390.59C885.958 2491.92 989.965 2525.16 1098.15 2493.42C1152.21 2477.56 1207.28 2445.48 1269.73 2397.64C1332.17 2349.81 1402.03 2286.19 1485.67 2207.24C1569.25 2128.33 1646.96 2093.94 1716.81 2091.54C1786.67 2089.15 1848.76 2118.74 1901.14 2168C2005.93 2266.53 2071.73 2443.66 2082.73 2600.15C2088.23 2678.34 2070.81 2731.53 2036.42 2766.29C2002.03 2801.05 1950.57 2817.46 1887.8 2821.88C1772.13 2830.03 1618.35 2797.46 1463.04 2764.56L1463.03 2764.56L1463.03 2764.56C1449.76 2761.75 1436.49 2758.94 1423.22 2756.15C1381.05 2747.28 1350.42 2747.84 1328.95 2756.08C1307.45 2764.34 1295.21 2780.28 1289.79 2801.98C1284.38 2823.64 1285.76 2851.06 1291.45 2882.36C1297.15 2913.66 1307.17 2948.89 1319.07 2986.2C1326.82 3010.5 1335.38 3035.68 1344.06 3061.24L1344.06 3061.25C1362.04 3114.2 1380.58 3168.77 1393.7 3220.49C1403.44 3258.83 1410.19 3295.58 1411.54 3328.91C1412.89 3362.24 1408.85 3392.11 1397.01 3416.74C1385.17 3441.35 1366.66 3457.76 1342.63 3467.12C1318.59 3476.49 1289.02 3478.8 1255.07 3475.13C1187.16 3467.81 1101.91 3436.62 1008.85 3390.5C822.761 3298.28 605.642 3146.48 434.055 3007.07C262.506 2867.69 124.56 2685.29 60.3491 2523.52C28.2427 2442.63 14.5892 2366.94 24.3449 2304.38C34.0961 2241.85 67.2341 2192.43 128.783 2163.99ZM872.184 2496.95C964.225 2539.35 1050.37 2570.04 1119.94 2566.12C1259.14 2558.26 1367.94 2456.6 1467.69 2357.33C1473.3 2351.75 1478.88 2346.17 1484.44 2340.61C1528.26 2296.84 1570.52 2254.62 1613.08 2222.4C1661.03 2186.1 1709.42 2162.45 1760.89 2163.66C1812.34 2164.86 1861.43 2189.7 1903.52 2228.4C1945.61 2267.11 1980.73 2319.72 2004.26 2376.54C2051.3 2490.15 2052.09 2620.88 1969.22 2691.1C1886.4 2761.28 1795.93 2751.23 1694.97 2723.05C1671.11 2716.4 1646.68 2708.73 1621.61 2700.87L1621.61 2700.87L1621.6 2700.87C1540.53 2675.43 1452.9 2647.94 1357.24 2645.9C1307.23 2644.83 1274.33 2660.23 1254 2685.87C1233.65 2711.54 1225.83 2747.57 1226.18 2787.88C1226.89 2868.51 1260.29 2966.01 1290.92 3031.21L1290.94 3031.25L1290.95 3031.3C1317.14 3129.38 1317.53 3199.49 1298.28 3246.3C1279.01 3293.17 1240.1 3316.59 1187.97 3321.35C1135.88 3326.11 1070.55 3312.24 998.298 3284.56C926.038 3256.87 846.81 3215.33 766.898 3164.7C607.077 3063.44 444.473 2925.77 329.354 2789.62C271.794 2721.55 226.091 2653.84 198.546 2591.24C171.005 2528.65 161.589 2471.09 176.71 2423.38C191.799 2375.76 213.52 2342.48 240.556 2320.71C267.595 2298.94 299.907 2288.71 336.117 2287.11C408.502 2283.92 496.54 2315.22 589.426 2357.87C635.879 2379.19 683.568 2403.37 731.14 2427.51L732.609 2428.25C779.692 2452.15 826.648 2475.97 872.184 2496.95ZM241.183 2321.49C214.339 2343.11 192.71 2376.2 177.663 2423.68C162.647 2471.06 171.965 2528.35 199.461 2590.84C226.954 2653.32 272.594 2720.95 330.117 2788.98C445.163 2925.04 607.686 3062.64 767.434 3163.85C847.306 3214.46 926.474 3255.96 998.656 3283.62C1070.85 3311.29 1136.01 3325.09 1187.88 3320.35C1239.72 3315.62 1278.26 3292.37 1297.36 3245.92C1316.48 3199.43 1316.15 3129.59 1289.99 3031.6C1259.34 2966.34 1225.89 2868.71 1225.18 2787.89C1224.83 2747.47 1232.67 2711.18 1253.21 2685.25C1273.78 2659.3 1307.02 2643.83 1357.26 2644.9C1453.07 2646.94 1540.9 2674.5 1621.99 2699.94L1621.99 2699.94C1647.04 2707.79 1671.44 2715.45 1695.24 2722.09C1796.14 2750.25 1886.16 2760.17 1968.58 2690.34C2050.94 2620.55 2050.32 2490.4 2003.33 2376.93C1979.85 2320.21 1944.81 2267.73 1902.84 2229.14C1860.87 2190.54 1812 2165.86 1760.86 2164.66C1709.73 2163.46 1661.56 2186.95 1613.68 2223.2C1571.19 2255.37 1528.97 2297.54 1485.15 2341.32L1485.15 2341.32C1479.59 2346.88 1474 2352.45 1468.39 2358.04C1368.69 2457.27 1259.63 2559.24 1120 2567.12C1050.15 2571.06 963.801 2540.25 871.765 2497.86C826.214 2476.87 779.245 2453.04 732.17 2429.15L732.169 2429.15L732.169 2429.15L732.169 2429.15L732.168 2429.15L732.168 2429.15L732.162 2429.15L730.687 2428.4C683.112 2404.26 635.441 2380.09 589.008 2358.77C496.122 2316.13 408.281 2284.93 336.161 2288.11C300.119 2289.7 268.024 2299.88 241.183 2321.49ZM1808.21 2277.12C1749.97 2281.26 1681.73 2324.62 1613.07 2395.34C1585.64 2423.59 1572.71 2449.3 1569.84 2472.31C1566.97 2495.31 1574.15 2515.68 1587.08 2533.26C1612.97 2568.45 1661.88 2592.4 1699.11 2603.67L1699.15 2603.68L1699.19 2603.7C1773.16 2639.7 1829.03 2655.35 1870.32 2655.94C1911.57 2656.52 1938.23 2642.05 1953.88 2617.78C1969.57 2593.48 1974.28 2559.26 1971.42 2520.26C1968.56 2481.26 1958.15 2437.54 1943.65 2394.31C1929.17 2351.1 1909.83 2320.77 1886.86 2301.76C1863.91 2282.76 1837.3 2275.05 1808.21 2277.12ZM1887.5 2300.99C1910.65 2320.16 1930.08 2350.67 1944.6 2393.99C1959.11 2437.27 1969.55 2481.07 1972.42 2520.18C1975.28 2559.28 1970.58 2593.75 1954.72 2618.33C1938.84 2642.94 1911.83 2657.52 1870.3 2656.94C1828.81 2656.35 1772.79 2640.63 1698.78 2604.62C1661.48 2593.32 1612.34 2569.29 1586.27 2533.85C1573.22 2516.11 1565.94 2495.49 1568.85 2472.19C1571.75 2448.9 1584.83 2422.99 1612.35 2394.64C1681.05 2323.88 1749.51 2280.29 1808.14 2276.12C1837.47 2274.03 1864.34 2281.82 1887.5 2300.99ZM1868.55 2362.82C1893 2384.8 1909.42 2418.97 1917.07 2443.74C1928.1 2474.22 1930.27 2496.18 1925.75 2511.55C1921.21 2526.97 1909.95 2535.67 1894.39 2539.68C1878.87 2543.68 1859.02 2543.01 1837.17 2539.73C1815.31 2536.44 1791.4 2530.52 1767.71 2523.98C1720.23 2510.86 1696.31 2483.79 1696.84 2452.29C1697.37 2420.86 1722.27 2385.31 1771.74 2355.22C1791.58 2343.15 1809.66 2339.53 1825.86 2341.7C1842.06 2343.87 1856.32 2351.83 1868.55 2362.82ZM1772.26 2356.08C1791.94 2344.1 1809.79 2340.55 1825.73 2342.69C1841.67 2344.83 1855.76 2352.67 1867.89 2363.57C1892.15 2385.38 1908.5 2419.37 1916.12 2444.05L1916.12 2444.06L1916.12 2444.07C1927.13 2474.49 1929.22 2496.2 1924.79 2511.27C1920.37 2526.28 1909.45 2534.77 1894.14 2538.71C1878.81 2542.66 1859.13 2542.02 1837.32 2538.74C1815.52 2535.46 1791.65 2529.56 1767.98 2523.01C1720.73 2509.95 1697.32 2483.16 1697.84 2452.31C1698.36 2421.39 1722.9 2386.1 1772.26 2356.08ZM649.194 2491.95C586.507 2449.93 493.964 2399.99 420.101 2386.8C383.174 2380.21 350.783 2382.77 329.151 2400.27C307.496 2417.79 296.789 2450.13 302.896 2502.66C318.162 2633.96 398.297 2756.48 491.596 2857.22C584.903 2957.97 691.427 3036.98 759.571 3081.27C827.726 3125.57 947.267 3184.25 1045.96 3207.86C1095.29 3219.66 1139.52 3222.73 1169.53 3210.76C1184.55 3204.76 1196.03 3194.99 1202.76 3180.66C1209.5 3166.34 1211.48 3147.53 1207.63 3123.48C1199.95 3075.4 1171.82 3017.44 1131.33 2956.19C1090.83 2894.93 1037.94 2830.32 980.701 2768.95C866.241 2646.23 734.324 2536.37 649.194 2491.95ZM329.779 2401.05C308.517 2418.25 297.798 2450.15 303.889 2502.54C319.119 2633.54 399.088 2755.86 492.33 2856.54C585.564 2957.21 692.018 3036.17 760.117 3080.43C828.204 3124.69 947.639 3183.31 1046.2 3206.89C1095.49 3218.68 1139.46 3221.68 1169.16 3209.83C1183.99 3203.91 1195.24 3194.3 1201.86 3180.24C1208.48 3166.16 1210.47 3147.57 1206.65 3123.64C1199 3075.77 1170.96 3017.96 1130.49 2956.74C1090.03 2895.54 1037.18 2830.98 979.969 2769.64C865.529 2646.94 733.688 2537.16 648.706 2492.82L648.682 2492.81L648.659 2492.8C586 2450.79 493.585 2400.94 419.923 2387.78C383.082 2381.21 351.064 2383.83 329.779 2401.05ZM559.114 2514.57C606.839 2526.04 664.662 2562.51 703.345 2592.62C756.631 2625.17 836.786 2702.72 904.728 2788.12C938.708 2830.83 969.647 2875.52 992.651 2917.55C1015.65 2959.56 1030.74 2998.96 1032.98 3031.08C1034.1 3047.15 1031.7 3059.55 1026.43 3068.81C1021.15 3078.09 1013.01 3084.15 1002.77 3087.57C982.33 3094.39 953.446 3090.71 921.766 3081.08C858.366 3061.8 783.341 3018.56 741.197 2986.73C699.063 2954.92 633.769 2898.71 578.414 2828.61C523.067 2758.52 477.609 2674.49 475.247 2587.04C474.303 2552.05 483.217 2530.98 498.518 2520.15C513.794 2509.33 535.258 2508.84 559.114 2514.57ZM476.246 2586.97C475.305 2552.12 484.193 2531.49 499.074 2520.96C513.98 2510.4 535.077 2509.84 558.85 2515.55C606.377 2526.96 664.081 2563.34 702.737 2593.43L702.758 2593.45L702.781 2593.46C755.928 2625.92 836.014 2703.38 903.939 2788.76C937.896 2831.44 968.801 2876.09 991.772 2918.05C1014.75 2960.03 1029.76 2999.28 1031.99 3031.18C1033.1 3047.13 1030.71 3059.31 1025.57 3068.34C1020.43 3077.35 1012.52 3083.27 1002.48 3086.62C982.363 3093.34 953.737 3089.74 922.085 3080.12C858.821 3060.89 783.895 3017.71 741.815 2985.93C699.724 2954.14 634.495 2897.99 579.205 2827.97C523.908 2757.95 478.599 2674.12 476.246 2586.97ZM740.347 2674.56C719.926 2654.78 688.734 2630.27 661.539 2621.12C647.947 2616.55 635.227 2615.77 625.34 2621.5C615.429 2627.25 608.563 2639.43 606.433 2660.29C601.11 2712.45 621.395 2764.65 648.545 2809.02C675.7 2853.39 709.759 2889.99 732.079 2910.96C754.408 2931.94 795.185 2961.3 830.978 2975.86C848.855 2983.13 865.592 2986.74 878.192 2983.66C884.516 2982.12 889.809 2978.88 893.658 2973.58C897.498 2968.29 899.865 2960.99 900.44 2951.36C901.59 2932.12 895.731 2907.94 885.439 2881.84C875.142 2855.73 860.388 2827.65 843.696 2800.6C810.33 2746.54 769.18 2696.52 740.347 2674.56ZM625.794 2622.35C616.336 2627.84 609.549 2639.58 607.433 2660.31C602.141 2712.17 622.308 2764.15 649.416 2808.45C676.518 2852.74 710.519 2889.28 732.801 2910.21C755.073 2931.14 795.759 2960.43 831.422 2974.93C849.273 2982.19 865.762 2985.7 878.028 2982.7C884.136 2981.21 889.186 2978.1 892.858 2973.05C896.538 2967.97 898.869 2960.89 899.437 2951.38C900.574 2932.35 894.775 2908.32 884.499 2882.26C874.227 2856.22 859.499 2828.19 842.827 2801.17C809.474 2747.13 768.38 2697.21 739.673 2675.35L739.652 2675.34L739.633 2675.32C719.236 2655.55 688.152 2631.15 661.148 2622.07C647.638 2617.52 635.276 2616.85 625.794 2622.35Z" fill="#3A846F"/>
</svg>
