<svg width="36" height="36" viewBox="0 0 36 36" fill="none" xmlns="http://www.w3.org/2000/svg">
<circle cx="18" cy="18" r="18" fill="#3A846F"/>
<path d="M13.858 7.875C10.5593 7.875 7.875 10.5593 7.875 13.858V22.142C7.875 25.4407 10.5593 28.125 13.858 28.125H22.142C25.4407 28.125 28.125 25.4407 28.125 22.142V13.858C28.125 10.5593 25.4407 7.875 22.142 7.875H13.858ZM13.858 8.79545H22.142C24.9432 8.79545 27.2045 11.0568 27.2045 13.858V22.142C27.2045 24.9432 24.9432 27.2045 22.142 27.2045H13.858C11.0568 27.2045 8.79545 24.9432 8.79545 22.142V13.858C8.79545 11.0568 11.0568 8.79545 13.858 8.79545ZM23.5227 11.5568C23.2786 11.5568 23.0445 11.6538 22.8719 11.8264C22.6992 11.999 22.6023 12.2332 22.6023 12.4773C22.6023 12.7214 22.6992 12.9555 22.8719 13.1281C23.0445 13.3008 23.2786 13.3977 23.5227 13.3977C23.7668 13.3977 24.001 13.3008 24.1736 13.1281C24.3462 12.9555 24.4432 12.7214 24.4432 12.4773C24.4432 12.2332 24.3462 11.999 24.1736 11.8264C24.001 11.6538 23.7668 11.5568 23.5227 11.5568ZM18 12.9375C15.2095 12.9375 12.9375 15.2095 12.9375 18C12.9375 20.7905 15.2095 23.0625 18 23.0625C20.7905 23.0625 23.0625 20.7905 23.0625 18C23.0625 15.2095 20.7905 12.9375 18 12.9375ZM18 13.858C20.293 13.858 22.142 15.707 22.142 18C22.142 20.293 20.293 22.142 18 22.142C15.707 22.142 13.858 20.293 13.858 18C13.858 15.707 15.707 13.858 18 13.858Z" fill="#F2F2F2"/>
</svg>
