<svg width="36" height="36" viewBox="0 0 36 36" fill="none" xmlns="http://www.w3.org/2000/svg">
<circle cx="18" cy="18" r="18" fill="#3A846F"/>
<path d="M25.7143 7.875H10.2857C8.955 7.875 7.875 8.955 7.875 10.2857V25.7143C7.875 27.045 8.955 28.125 10.2857 28.125H25.7143C27.045 28.125 28.125 27.045 28.125 25.7143V10.2857C28.125 8.955 27.045 7.875 25.7143 7.875ZM14.1429 15.5893V24.75H11.25V15.5893H14.1429ZM11.25 12.923C11.25 12.248 11.8286 11.7321 12.6964 11.7321C13.5643 11.7321 14.1091 12.248 14.1429 12.923C14.1429 13.598 13.6029 14.1429 12.6964 14.1429C11.8286 14.1429 11.25 13.598 11.25 12.923ZM24.75 24.75H21.8571C21.8571 24.75 21.8571 20.2854 21.8571 19.9286C21.8571 18.9643 21.375 18 20.1696 17.9807H20.1311C18.9643 17.9807 18.4821 18.9739 18.4821 19.9286C18.4821 20.3673 18.4821 24.75 18.4821 24.75H15.5893V15.5893H18.4821V16.8236C18.4821 16.8236 19.4127 15.5893 21.2834 15.5893C23.1975 15.5893 24.75 16.9055 24.75 19.5718V24.75Z" fill="#F2F2F2"/>
</svg>
