<svg width="36" height="36" viewBox="0 0 36 36" fill="none" xmlns="http://www.w3.org/2000/svg">
<circle cx="18" cy="18" r="18" fill="#3A846F"/>
<path d="M18.125 8C12.5335 8 8 12.5335 8 18.125C8 20.0245 8.53354 21.7954 9.4436 23.3144L8.09064 28.25L13.1317 26.9267C14.606 27.7649 16.308 28.25 18.125 28.25C23.7165 28.25 28.25 23.7165 28.25 18.125C28.25 12.5335 23.7165 8 18.125 8ZM14.6594 13.402C14.8239 13.402 14.9929 13.401 15.1389 13.4086C15.3195 13.4128 15.516 13.426 15.7042 13.842C15.9278 14.3364 16.4146 15.5768 16.4771 15.7025C16.5395 15.8282 16.5837 15.9763 16.4968 16.1409C16.4141 16.3096 16.3711 16.4118 16.2496 16.5611C16.1239 16.7062 15.9862 16.8865 15.8723 16.9962C15.7465 17.1219 15.6167 17.2597 15.7618 17.5103C15.907 17.7609 16.411 18.5824 17.156 19.2456C18.1137 20.1012 18.9217 20.3641 19.1731 20.4898C19.4245 20.6155 19.5701 20.5959 19.7153 20.4272C19.8646 20.2627 20.3425 19.6981 20.5112 19.4467C20.6758 19.1952 20.8437 19.2387 21.0715 19.3214C21.3027 19.4041 22.5356 20.0114 22.787 20.1371C23.0385 20.2629 23.2033 20.3251 23.2666 20.4272C23.3316 20.5327 23.3316 21.0347 23.1232 21.6203C22.9148 22.205 21.8914 22.7705 21.4324 22.8101C20.9692 22.8532 20.5369 23.0183 18.4216 22.1855C15.8701 21.1806 14.261 18.5673 14.1353 18.3986C14.0096 18.234 13.1136 17.0399 13.1136 15.808C13.1136 14.5719 13.7617 13.9665 13.9886 13.7151C14.2198 13.4637 14.4906 13.402 14.6594 13.402Z" fill="#F2F2F2"/>
</svg>
